<svg width="24" height="24" viewBox="0 0 48 48" fill="none" xmlns="http://www.w3.org/2000/svg"><path fill="#fff" fill-opacity=".01" d="M0 0h48v48H0z"/><path fill-rule="evenodd" clip-rule="evenodd" d="M24 3v3.15V3z" fill="#f9a933"/><path d="M24 3v3.15" stroke="#f9a933" stroke-width="4" stroke-linecap="round" stroke-linejoin="round"/><path fill-rule="evenodd" clip-rule="evenodd" d="M38.85 9.15l-2.228 2.228 2.227-2.227z" fill="#f9a933"/><path d="M38.85 9.15l-2.228 2.228" stroke="#f9a933" stroke-width="4" stroke-linecap="round" stroke-linejoin="round"/><path fill-rule="evenodd" clip-rule="evenodd" d="M45 24h-3.15H45z" fill="#f9a933"/><path d="M45 24h-3.15" stroke="#f9a933" stroke-width="4" stroke-linecap="round" stroke-linejoin="round"/><path fill-rule="evenodd" clip-rule="evenodd" d="M38.85 38.85l-2.228-2.228 2.227 2.227z" fill="#f9a933"/><path d="M38.85 38.85l-2.228-2.228" stroke="#f9a933" stroke-width="4" stroke-linecap="round" stroke-linejoin="round"/><path fill-rule="evenodd" clip-rule="evenodd" d="M24 45v-3.15V45z" fill="#f9a933"/><path d="M24 45v-3.15" stroke="#f9a933" stroke-width="4" stroke-linecap="round" stroke-linejoin="round"/><path fill-rule="evenodd" clip-rule="evenodd" d="M9.15 38.85l2.228-2.228-2.227 2.227z" fill="#f9a933"/><path d="M9.15 38.85l2.228-2.228" stroke="#f9a933" stroke-width="4" stroke-linecap="round" stroke-linejoin="round"/><path fill-rule="evenodd" clip-rule="evenodd" d="M3 24h3.15H3z" fill="#f9a933"/><path d="M3 24h3.15" stroke="#f9a933" stroke-width="4" stroke-linecap="round" stroke-linejoin="round"/><path fill-rule="evenodd" clip-rule="evenodd" d="M9.15 9.15l2.228 2.228-2.227-2.227z" fill="#f9a933"/><path d="M9.15 9.15l2.228 2.228" stroke="#f9a933" stroke-width="4" stroke-linecap="round" stroke-linejoin="round"/><path d="M24 36c6.627 0 12-5.373 12-12s-5.373-12-12-12-12 5.373-12 12 5.373 12 12 12z" stroke="#f9a933" stroke-width="4" stroke-linejoin="round"/></svg>